<?xml version="1.0" encoding="UTF-8" standalone="no"?>
<!-- Created with Inkscape (http://www.inkscape.org/) -->

<svg
   xmlns:dc="http://purl.org/dc/elements/1.1/"
   xmlns:cc="http://creativecommons.org/ns#"
   xmlns:rdf="http://www.w3.org/1999/02/22-rdf-syntax-ns#"
   xmlns:svg="http://www.w3.org/2000/svg"
   xmlns="http://www.w3.org/2000/svg"
   xmlns:sodipodi="http://sodipodi.sourceforge.net/DTD/sodipodi-0.dtd"
   xmlns:inkscape="http://www.inkscape.org/namespaces/inkscape"
   xmlns:xlink="http://www.w3.org/1999/xlink"

   viewBox="0 0 955 360"
   preserveAspectRatio="xMinYMin meet"
   class="svg-content"

   version="1.1"
   id="svg3004"
   xml:space="preserve"
   inkscape:version="0.48.5 r10040"
   sodipodi:docname="MICW-Logo-Reg.svg">
   
   
   <sodipodi:namedview
     pagecolor="#ffffff"
     bordercolor="#666666"
     borderopacity="1"
     objecttolerance="10"
     gridtolerance="10"
     guidetolerance="10"
     inkscape:pageopacity="0"
     inkscape:pageshadow="2"
     inkscape:window-width="640"
     inkscape:window-height="480"
     id="namedview3719"
     showgrid="false"
     fit-margin-top="0"
     fit-margin-left="0"
     fit-margin-right="0"
     fit-margin-bottom="0"
     inkscape:zoom="0.2328125"
     inkscape:cx="462.48625"
     inkscape:cy="189.04737"
     inkscape:window-x="0"
     inkscape:window-y="0"
     inkscape:window-maximized="0"
     inkscape:current-layer="svg3004" />

<a xlink:href="https://www.mercerislandwater.com" target="_top">      

     
     <metadata
     id="metadata3010"><rdf:RDF><cc:Work
         rdf:about=""><dc:format>image/svg+xml</dc:format><dc:type
           rdf:resource="http://purl.org/dc/dcmitype/StillImage" /><dc:title /></cc:Work></rdf:RDF></metadata>
    
    
           
           <defs
     id="defs3008"><clipPath
       id="clipPath3018"><path
         d="M 0,768 1024,768 1024,0 0,0 0,768 z"
         id="path3020"
         inkscape:connector-curvature="0" /></clipPath></defs><g
     transform="matrix(1.25,0,0,-1.25,-177.51375,650.5025)"
     id="g3012"><g
       id="g3014"><g
         clip-path="url(#clipPath3018)"
         id="g3016"><g
           transform="translate(193.2402,281.6523)"
           id="g3022"><path
             d="m 0,0 c 0,-7.223 -5.856,-13.079 -13.079,-13.079 -7.226,0 -13.08,5.856 -13.08,13.079 0,7.223 5.854,13.08 13.08,13.08 C -5.856,13.08 0,7.223 0,0"
             id="path3024"
             style="fill:#29aae1;fill-opacity:1;fill-rule:nonzero;stroke:none"
             inkscape:connector-curvature="0" /></g><g
           transform="translate(249.9375,295.7588)"
           id="g3026"><path
             d="m 0,0 c 0,-5.599 -4.539,-10.136 -10.137,-10.136 -5.596,0 -10.134,4.537 -10.134,10.136 0,5.598 4.538,10.137 10.134,10.137 C -4.539,10.137 0,5.598 0,0"
             id="path3028"
             style="fill:#29aae1;fill-opacity:1;fill-rule:nonzero;stroke:none"
             inkscape:connector-curvature="0" /></g><g
           transform="translate(264.5791,316.4053)"
           id="g3030"><path
             d="m 0,0 c 0,-5.498 -4.458,-9.956 -9.956,-9.956 -5.499,0 -9.955,4.458 -9.955,9.956 0,5.498 4.456,9.956 9.955,9.956 C -4.458,9.956 0,5.498 0,0"
             id="path3032"
             style="fill:#29aae1;fill-opacity:1;fill-rule:nonzero;stroke:none"
             inkscape:connector-curvature="0" /></g><g
           transform="translate(205.9443,305.4043)"
           id="g3034"><path
             d="m 0,0 c 0,-6.008 -4.869,-10.877 -10.876,-10.877 -6.005,0 -10.874,4.869 -10.874,10.877 0,6.006 4.869,10.875 10.874,10.875 C -4.869,10.875 0,6.006 0,0"
             id="path3036"
             style="fill:#29aae1;fill-opacity:1;fill-rule:nonzero;stroke:none"
             inkscape:connector-curvature="0" /></g><g
           transform="translate(229.8184,280.0195)"
           id="g3038"><path
             d="m 0,0 c 0,-9.024 -7.313,-16.338 -16.336,-16.338 -9.023,0 -16.338,7.314 -16.338,16.338 0,9.022 7.315,16.337 16.338,16.337 C -7.313,16.337 0,9.022 0,0"
             id="path3040"
             style="fill:#29aae1;fill-opacity:1;fill-rule:nonzero;stroke:none"
             inkscape:connector-curvature="0" /></g><g
           transform="translate(247.708,273.1758)"
           id="g3042"><path
             d="m 0,0 c 0,-4.141 -3.356,-7.497 -7.496,-7.497 -4.141,0 -7.496,3.356 -7.496,7.497 0,4.14 3.355,7.496 7.496,7.496 C -3.356,7.496 0,4.14 0,0"
             id="path3044"
             style="fill:#29aae1;fill-opacity:1;fill-rule:nonzero;stroke:none"
             inkscape:connector-curvature="0" /></g><g
           transform="translate(200.3232,259.8086)"
           id="g3046"><path
             d="m 0,0 c 0,-4.564 -3.7,-8.266 -8.264,-8.266 -4.565,0 -8.264,3.702 -8.264,8.266 0,4.564 3.699,8.265 8.264,8.265 C -3.7,8.265 0,4.564 0,0"
             id="path3048"
             style="fill:#29aae1;fill-opacity:1;fill-rule:nonzero;stroke:none"
             inkscape:connector-curvature="0" /></g><g
           transform="translate(254.4971,283.9844)"
           id="g3050"><path
             d="m 0,0 c 0,-1.767 -1.433,-3.199 -3.199,-3.199 -1.767,0 -3.197,1.432 -3.197,3.199 0,1.767 1.43,3.199 3.197,3.199 C -1.433,3.199 0,1.767 0,0"
             id="path3052"
             style="fill:#29aae1;fill-opacity:1;fill-rule:nonzero;stroke:none"
             inkscape:connector-curvature="0" /></g><g
           transform="translate(228.5381,308.4395)"
           id="g3054"><path
             d="m 0,0 c 0,-5.188 -4.205,-9.395 -9.389,-9.395 -5.185,0 -9.389,4.207 -9.389,9.395 0,5.184 4.204,9.389 9.389,9.389 C -4.205,9.389 0,5.184 0,0"
             id="path3056"
             style="fill:#29aae1;fill-opacity:1;fill-rule:nonzero;stroke:none"
             inkscape:connector-curvature="0" /></g><g
           transform="translate(275.7129,448.8613)"
           id="g3058"><path
             d="m 0,0 c 0,-5.912 -4.792,-10.705 -10.705,-10.705 -5.913,0 -10.707,4.793 -10.707,10.705 0,5.912 4.794,10.705 10.707,10.705 C -4.792,10.705 0,5.912 0,0"
             id="path3060"
             style="fill:#29aae1;fill-opacity:1;fill-rule:nonzero;stroke:none"
             inkscape:connector-curvature="0" /></g><g
           transform="translate(169.083,491.3438)"
           id="g3062"><path
             d="m 0,0 c 0,-7.475 -6.061,-13.535 -13.536,-13.535 -7.476,0 -13.536,6.06 -13.536,13.535 0,7.476 6.06,13.536 13.536,13.536 C -6.061,13.536 0,7.476 0,0"
             id="path3064"
             style="fill:#29aae1;fill-opacity:1;fill-rule:nonzero;stroke:none"
             inkscape:connector-curvature="0" /></g><g
           transform="translate(214.0244,500.9141)"
           id="g3066"><path
             d="m 0,0 c 0,-5.893 -4.777,-10.67 -10.67,-10.67 -5.893,0 -10.669,4.777 -10.669,10.67 0,5.892 4.776,10.669 10.669,10.669 C -4.777,10.669 0,5.892 0,0"
             id="path3068"
             style="fill:#29aae1;fill-opacity:1;fill-rule:nonzero;stroke:none"
             inkscape:connector-curvature="0" /></g><g
           transform="translate(178.5225,439.8604)"
           id="g3070"><path
             d="m 0,0 c 0,-3.796 -3.076,-6.874 -6.873,-6.874 -3.798,0 -6.874,3.078 -6.874,6.874 0,3.796 3.076,6.875 6.874,6.875 C -3.076,6.875 0,3.796 0,0"
             id="path3072"
             style="fill:#29aae1;fill-opacity:1;fill-rule:nonzero;stroke:none"
             inkscape:connector-curvature="0" /></g><g
           transform="translate(246.7871,463.8906)"
           id="g3074"><path
             d="m 0,0 c 0,-7.583 -6.147,-13.729 -13.729,-13.729 -7.583,0 -13.73,6.146 -13.73,13.729 0,7.582 6.147,13.729 13.73,13.729 C -6.147,13.729 0,7.582 0,0"
             id="path3076"
             style="fill:#29aae1;fill-opacity:1;fill-rule:nonzero;stroke:none"
             inkscape:connector-curvature="0" /></g><g
           transform="translate(198.4102,430.8037)"
           id="g3078"><path
             d="m 0,0 c 0,-4.876 -3.954,-8.83 -8.831,-8.83 -4.878,0 -8.83,3.954 -8.83,8.83 0,4.877 3.952,8.831 8.83,8.831 C -3.954,8.831 0,4.877 0,0"
             id="path3080"
             style="fill:#29aae1;fill-opacity:1;fill-rule:nonzero;stroke:none"
             inkscape:connector-curvature="0" /></g><g
           transform="translate(265.623,413.6201)"
           id="g3082"><path
             d="m 0,0 c 0,-18.309 -14.842,-33.151 -33.151,-33.151 -18.309,0 -33.151,14.842 -33.151,33.151 0,18.31 14.842,33.151 33.151,33.151 C -14.842,33.151 0,18.31 0,0"
             id="path3084"
             style="fill:#29aae1;fill-opacity:1;fill-rule:nonzero;stroke:none"
             inkscape:connector-curvature="0" /></g><g
           transform="translate(265.9297,371.3281)"
           id="g3086"><path
             d="m 0,0 c 0,-5.963 -4.834,-10.797 -10.797,-10.797 -5.962,0 -10.797,4.834 -10.797,10.797 0,5.962 4.835,10.795 10.797,10.795 C -4.834,10.795 0,5.962 0,0"
             id="path3088"
             style="fill:#29aae1;fill-opacity:1;fill-rule:nonzero;stroke:none"
             inkscape:connector-curvature="0" /></g><g
           transform="translate(215.7852,467.2637)"
           id="g3090"><path
             d="m 0,0 c 0,-13.14 -10.65,-23.791 -23.791,-23.791 -13.14,0 -23.793,10.651 -23.793,23.791 0,13.14 10.653,23.793 23.793,23.793 C -10.65,23.793 0,13.14 0,0"
             id="path3092"
             style="fill:#29aae1;fill-opacity:1;fill-rule:nonzero;stroke:none"
             inkscape:connector-curvature="0" /></g><g
           transform="translate(164.6172,463.5771)"
           id="g3094"><path
             d="m 0,0 c 0,-5.241 -4.25,-9.49 -9.49,-9.49 -5.242,0 -9.492,4.249 -9.492,9.49 0,5.241 4.25,9.49 9.492,9.49 C -4.25,9.49 0,5.241 0,0"
             id="path3096"
             style="fill:#29aae1;fill-opacity:1;fill-rule:nonzero;stroke:none"
             inkscape:connector-curvature="0" /></g><g
           transform="translate(178.5898,512.209)"
           id="g3098"><path
             d="m 0,0 c 0,-4.525 -3.668,-8.194 -8.193,-8.194 -4.526,0 -8.196,3.669 -8.196,8.194 0,4.524 3.67,8.193 8.196,8.193 C -3.668,8.193 0,4.524 0,0"
             id="path3100"
             style="fill:#29aae1;fill-opacity:1;fill-rule:nonzero;stroke:none"
             inkscape:connector-curvature="0" /></g><g
           transform="translate(187.7168,498.2666)"
           id="g3102"><path
             d="m 0,0 c 0,-3.411 -2.764,-6.177 -6.174,-6.177 -3.411,0 -6.178,2.766 -6.178,6.177 0,3.411 2.767,6.177 6.178,6.177 C -2.764,6.177 0,3.411 0,0"
             id="path3104"
             style="fill:#29aae1;fill-opacity:1;fill-rule:nonzero;stroke:none"
             inkscape:connector-curvature="0" /></g><g
           transform="translate(228.9541,373.9941)"
           id="g3106"><path
             d="m 0,0 c 0,-2.002 -1.623,-3.626 -3.626,-3.626 -2.002,0 -3.624,1.624 -3.624,3.626 0,2.001 1.622,3.625 3.624,3.625 C -1.623,3.625 0,2.001 0,0"
             id="path3108"
             style="fill:#29aae1;fill-opacity:1;fill-rule:nonzero;stroke:none"
             inkscape:connector-curvature="0" /></g><g
           transform="translate(261.2051,466.3389)"
           id="g3110"><path
             d="m 0,0 c 0,-2.731 -2.215,-4.947 -4.947,-4.947 -2.733,0 -4.947,2.216 -4.947,4.947 0,2.731 2.214,4.947 4.947,4.947 C -2.215,4.947 0,2.731 0,0"
             id="path3112"
             style="fill:#29aae1;fill-opacity:1;fill-rule:nonzero;stroke:none"
             inkscape:connector-curvature="0" /></g><g
           transform="translate(221.2139,487.5391)"
           id="g3114"><path
             d="m 0,0 c 0,-2.436 -1.976,-4.414 -4.413,-4.414 -2.437,0 -4.413,1.978 -4.413,4.414 0,2.436 1.976,4.412 4.413,4.412 C -1.976,4.412 0,2.436 0,0"
             id="path3116"
             style="fill:#29aae1;fill-opacity:1;fill-rule:nonzero;stroke:none"
             inkscape:connector-curvature="0" /></g><g
           transform="translate(217.0547,375.1191)"
           id="g3118"><path
             d="m 0,0 c 0,-3.803 -3.086,-6.89 -6.889,-6.89 -3.805,0 -6.889,3.087 -6.889,6.89 0,3.804 3.084,6.889 6.889,6.889 C -3.086,6.889 0,3.804 0,0"
             id="path3120"
             style="fill:#29aae1;fill-opacity:1;fill-rule:nonzero;stroke:none"
             inkscape:connector-curvature="0" /></g><g
           transform="translate(241.4102,313.2891)"
           id="g3122"><path
             d="m 0,0 c 0,-2.58 -2.093,-4.675 -4.674,-4.675 -2.582,0 -4.675,2.095 -4.675,4.675 0,2.58 2.093,4.674 4.675,4.674 C -2.093,4.674 0,2.58 0,0"
             id="path3124"
             style="fill:#29aae1;fill-opacity:1;fill-rule:nonzero;stroke:none"
             inkscape:connector-curvature="0" /></g><g
           transform="translate(207.623,324.001)"
           id="g3126"><path
             d="m 0,0 c 0,-2.678 -2.172,-4.851 -4.849,-4.851 -2.679,0 -4.849,2.173 -4.849,4.851 0,2.677 2.17,4.849 4.849,4.849 C -2.172,4.849 0,2.677 0,0"
             id="path3128"
             style="fill:#29aae1;fill-opacity:1;fill-rule:nonzero;stroke:none"
             inkscape:connector-curvature="0" /></g><g
           transform="translate(251.8604,344.0264)"
           id="g3130"><path
             d="m 0,0 c 0,-13.135 -10.648,-23.782 -23.781,-23.782 -13.135,0 -23.782,10.647 -23.782,23.782 0,13.134 10.647,23.78 23.782,23.78 C -10.648,23.78 0,13.134 0,0"
             id="path3132"
             style="fill:#29aae1;fill-opacity:1;fill-rule:nonzero;stroke:none"
             inkscape:connector-curvature="0" /></g><g
           transform="translate(298.1982,383.4092)"
           id="g3134"><path
             d="m 0,0 6.058,0 3.63,35.409 -6.369,0 0,7.843 13.979,0 13.685,-28.42 13.686,28.42 13.9,0 0,-7.843 -6.369,0 L 55.832,0 l 6.056,0 0,-7.843 -20.965,0 0,7.843 6.135,0 -3.01,26.324 -12.599,-25.625 -1.165,0 L 17.687,26.324 14.677,0 l 6.135,0 0,-7.843 L 0,-7.843 0,0 z"
             id="path3136"
             style="fill:#29aae1;fill-opacity:1;fill-rule:nonzero;stroke:none"
             inkscape:connector-curvature="0" /></g><g
           transform="translate(365.5264,383.4092)"
           id="g3138"><path
             d="m 0,0 5.823,0 0,35.409 -5.823,0 0,7.843 38.126,0 0,-14.599 -8.385,0 0,6.834 -15.142,0 0,-13.667 15.453,0 0,-7.455 -15.453,0 0,-14.442 15.219,0 0,6.833 8.386,0 0,-14.599 L 0,-7.843 0,0 z"
             id="path3140"
             style="fill:#29aae1;fill-opacity:1;fill-rule:nonzero;stroke:none"
             inkscape:connector-curvature="0" /></g><g
           transform="translate(441.1621,410.8984)"
           id="g3142"><path
             d="m 0,0 c 0,5.357 -4.428,7.92 -11.494,7.92 l -4.735,0 0,-16.385 c 0.931,-0.077 2.173,-0.155 4.969,-0.155 C -4.66,-8.62 0,-5.358 0,0 m -30.828,-27.489 5.824,0 0,35.409 -5.824,0 0,7.843 19.801,0 c 11.725,0 20.112,-5.047 20.112,-15.452 0,-6.601 -4.038,-11.649 -9.629,-13.901 l 7.843,-13.899 5.824,0 0,-7.843 -11.803,0 -10.252,19.413 c -1.086,-0.078 -2.095,-0.155 -3.103,-0.155 -1.632,0 -3.108,0 -4.194,0.077 l 0,-11.492 6.367,0 0,-7.843 -20.966,0 0,7.843 z"
             id="path3144"
             style="fill:#29aae1;fill-opacity:1;fill-rule:nonzero;stroke:none"
             inkscape:connector-curvature="0" /></g><g
           transform="translate(459.1797,401.1143)"
           id="g3146"><path
             d="m 0,0 c 0,15.375 11.958,26.479 26.867,26.479 11.881,0 19.802,-6.212 19.802,-12.347 0,-3.727 -2.407,-6.289 -5.592,-6.289 -3.494,0 -5.901,2.174 -5.901,5.512 0,1.01 0.233,2.02 0.543,2.641 -1.475,1.165 -4.425,2.329 -9.084,2.329 -9.94,0 -17.55,-7.609 -17.55,-18.248 0,-10.25 7.144,-18.403 17.936,-18.403 5.981,0 10.873,2.639 14.678,6.756 l 5.822,-6.057 c -4.968,-5.514 -12.345,-8.852 -20.5,-8.852 C 11.259,-26.479 0,-15.919 0,0"
             id="path3148"
             style="fill:#29aae1;fill-opacity:1;fill-rule:nonzero;stroke:none"
             inkscape:connector-curvature="0" /></g><g
           transform="translate(512.9951,383.4092)"
           id="g3150"><path
             d="m 0,0 5.823,0 0,35.409 -5.823,0 0,7.843 38.127,0 0,-14.599 -8.386,0 0,6.834 -15.142,0 0,-13.667 15.453,0 0,-7.455 -15.453,0 0,-14.442 15.219,0 0,6.833 8.386,0 0,-14.599 L 0,-7.843 0,0 z"
             id="path3152"
             style="fill:#29aae1;fill-opacity:1;fill-rule:nonzero;stroke:none"
             inkscape:connector-curvature="0" /></g><g
           transform="translate(588.6309,410.8984)"
           id="g3154"><path
             d="m 0,0 c 0,5.357 -4.427,7.92 -11.493,7.92 l -4.736,0 0,-16.385 c 0.932,-0.077 2.173,-0.155 4.969,-0.155 C -4.659,-8.62 0,-5.358 0,0 m -30.828,-27.489 5.824,0 0,35.409 -5.824,0 0,7.843 19.802,0 c 11.724,0 20.111,-5.047 20.111,-15.452 0,-6.601 -4.038,-11.649 -9.63,-13.901 l 7.844,-13.899 5.824,0 0,-7.843 -11.803,0 -10.252,19.413 c -1.086,-0.078 -2.094,-0.155 -3.104,-0.155 -1.631,0 -3.107,0 -4.193,0.077 l 0,-11.492 6.367,0 0,-7.843 -20.966,0 0,7.843 z"
             id="path3156"
             style="fill:#29aae1;fill-opacity:1;fill-rule:nonzero;stroke:none"
             inkscape:connector-curvature="0" /></g><g
           transform="translate(304.2852,356.4736)"
           id="g3158"><path
             d="m 0,0 -5.052,0 0,3.198 14.008,0 0,-3.198 -5.181,0 9.723,-32.813 10.618,30.574 2.046,0 L 36.845,-32.75 46.44,0 l -5.374,0 0,3.198 13.945,0 0,-3.198 -5.053,0 -11.961,-39.658 -2.176,0 -10.681,30.384 -10.811,-30.384 -2.174,0 L 0,0 z"
             id="path3160"
             style="fill:#808080;fill-opacity:1;fill-rule:nonzero;stroke:none"
             inkscape:connector-curvature="0" /></g><g
           transform="translate(387.1787,335.8125)"
           id="g3162"><path
             d="M 0,0 -7.74,20.98 -15.544,0 0,0 z m -29.104,-15.031 4.221,0 13.497,35.692 -4.862,0 0,3.198 17.143,0 0,-3.198 -4.862,0 13.497,-35.692 4.222,0 0,-3.198 -13.113,0 0,3.198 4.925,0 -4.414,11.897 -17.846,0 -4.414,-11.897 5.117,0 0,-3.198 -13.111,0 0,3.198 z"
             id="path3164"
             style="fill:#808080;fill-opacity:1;fill-rule:nonzero;stroke:none"
             inkscape:connector-curvature="0" /></g><g
           transform="translate(410.3291,320.7813)"
           id="g3166"><path
             d="m 0,0 5.949,0 0,35.82 -11.834,0 0,-6.78 -3.517,0 0,9.851 34.349,0 0,-9.851 -3.518,0 0,6.78 -11.833,0 0,-35.82 5.948,0 0,-3.198 L 0,-3.198 0,0 z"
             id="path3168"
             style="fill:#808080;fill-opacity:1;fill-rule:nonzero;stroke:none"
             inkscape:connector-curvature="0" /></g><g
           transform="translate(441.7959,320.7813)"
           id="g3170"><path
             d="m 0,0 5.629,0 0,35.692 -5.629,0 0,3.199 30.191,0 0,-9.532 -3.518,0 0,6.333 -17.398,0 0,-15.799 14.265,0 0,-3.198 -14.265,0 0,-16.695 17.398,0 0,6.332 3.518,0 0,-9.53 L 0,-3.198 0,0 z"
             id="path3172"
             style="fill:#808080;fill-opacity:1;fill-rule:nonzero;stroke:none"
             inkscape:connector-curvature="0" /></g><g
           transform="translate(506.6504,347.6465)"
           id="g3174"><path
             d="m 0,0 c 0,5.693 -4.476,8.827 -11.32,8.827 l -6.333,0 0,-17.91 c 1.534,-0.063 3.712,-0.128 5.63,-0.128 C -5.18,-9.211 0,-6.076 0,0 m -26.928,-26.865 5.629,0 0,35.692 -5.629,0 0,3.198 15.8,0 c 9.146,0 14.775,-4.861 14.775,-11.961 0,-5.884 -3.902,-9.915 -9.532,-11.578 l 9.853,-15.351 5.18,0 0,-3.198 -7.675,0 -11.195,17.782 c -0.767,-0.065 -1.598,-0.128 -2.429,-0.128 -1.79,0 -4.094,0.063 -5.502,0.128 l 0,-14.584 5.63,0 0,-3.198 -14.905,0 0,3.198 z"
             id="path3176"
             style="fill:#808080;fill-opacity:1;fill-rule:nonzero;stroke:none"
             inkscape:connector-curvature="0" /></g><g
           transform="translate(534.4063,338.3076)"
           id="g3178"><path
             d="m 0,0 c 0,13.177 10.106,22.132 21.044,22.132 8.443,0 15.48,-5.438 15.48,-10.49 0,-2.047 -1.408,-3.647 -3.326,-3.647 -1.599,0 -2.879,1.279 -2.879,2.879 0,1.407 1.024,2.494 2.111,2.75 C 31.278,15.8 27.121,18.87 21.044,18.87 10.81,18.87 3.709,9.851 3.709,0.063 c 0,-9.274 7.229,-18.292 17.591,-18.292 5.117,0 9.403,1.791 13.433,5.373 l 1.983,-2.623 C 32.43,-19.573 26.673,-21.492 21.3,-21.492 8.315,-21.492 0,-10.81 0,0"
             id="path3180"
             style="fill:#808080;fill-opacity:1;fill-rule:nonzero;stroke:none"
             inkscape:connector-curvature="0" /></g><g
           transform="translate(616.6611,338.5635)"
           id="g3182"><path
             d="m 0,0 c 0,10.362 -7.164,18.55 -17.463,18.55 -10.298,0 -17.462,-8.123 -17.462,-18.422 0,-10.362 7.164,-18.55 17.462,-18.55 C -7.164,-18.422 0,-10.298 0,0 m -38.635,0 c 0,12.345 9.083,21.876 21.301,21.876 12.024,0 21.044,-9.595 21.044,-21.748 0,-12.346 -9.083,-21.876 -21.3,-21.876 -12.025,0 -21.045,9.595 -21.045,21.748"
             id="path3184"
             style="fill:#808080;fill-opacity:1;fill-rule:nonzero;stroke:none"
             inkscape:connector-curvature="0" /></g><g
           transform="translate(625.9326,320.7813)"
           id="g3186"><path
             d="m 0,0 5.692,0 1.599,35.692 -5.821,0 0,3.199 9.724,0 14.136,-30.895 14.199,30.895 9.596,0 0,-3.199 -5.821,0 L 44.903,0 l 5.693,0 0,-3.198 -14.712,0 0,3.198 5.501,0 -1.152,32.878 -14.264,-30.64 -1.406,0 L 10.298,32.878 9.146,0 l 5.501,0 0,-3.198 L 0,-3.198 0,0 z"
             id="path3188"
             style="fill:#808080;fill-opacity:1;fill-rule:nonzero;stroke:none"
             inkscape:connector-curvature="0" /></g><g
           transform="translate(710.8076,346.5586)"
           id="g3190"><path
             d="m 0,0 c 0,6.333 -5.117,9.915 -11.514,9.915 l -6.781,0 0,-19.829 c 1.535,-0.065 4.35,-0.128 6.908,-0.128 C -4.414,-10.042 0,-6.204 0,0 m -27.569,-25.777 5.629,0 0,35.692 -5.629,0 0,3.198 15.799,0 c 8.763,0 15.416,-5.117 15.416,-13.049 0,-8.123 -6.013,-13.304 -15.16,-13.304 -2.431,0 -5.373,0.064 -6.781,0.128 l 0,-12.665 5.949,0 0,-3.199 -15.223,0 0,3.199 z"
             id="path3192"
             style="fill:#808080;fill-opacity:1;fill-rule:nonzero;stroke:none"
             inkscape:connector-curvature="0" /></g><g
           transform="translate(744.2568,335.8125)"
           id="g3194"><path
             d="M 0,0 -7.739,20.98 -15.543,0 0,0 z m -29.104,-15.031 4.222,0 13.497,35.692 -4.861,0 0,3.198 17.142,0 0,-3.198 -4.86,0 13.495,-35.692 4.222,0 0,-3.198 -13.112,0 0,3.198 4.924,0 -4.413,11.897 -17.846,0 -4.413,-11.897 5.116,0 0,-3.198 -13.113,0 0,3.198 z"
             id="path3196"
             style="fill:#808080;fill-opacity:1;fill-rule:nonzero;stroke:none"
             inkscape:connector-curvature="0" /></g><g
           transform="translate(771.6934,353.4668)"
           id="g3198"><path
             d="m 0,0 0,-32.686 5.629,0 0,-3.198 -14.712,0 0,3.198 5.629,0 0,35.693 -5.629,0 0,3.198 8.827,0 25.905,-34.605 0,31.407 -5.628,0 0,3.198 14.52,0 0,-3.198 -5.437,0 0,-39.083 -2.045,0 L 0,0 z"
             id="path3200"
             style="fill:#808080;fill-opacity:1;fill-rule:nonzero;stroke:none"
             inkscape:connector-curvature="0" /></g><g
           transform="translate(821.1328,320.7813)"
           id="g3202"><path
             d="m 0,0 6.203,0 0,14.008 -12.663,21.684 -4.606,0 0,3.199 13.369,0 0,-3.199 -4.606,0 10.427,-18.549 10.554,18.549 -4.798,0 0,3.199 13.368,0 0,-3.199 -4.669,0 -12.664,-21.62 0,-14.072 6.204,0 0,-3.198 L 0,-3.198 0,0 z"
             id="path3204"
             style="fill:#808080;fill-opacity:1;fill-rule:nonzero;stroke:none"
             inkscape:connector-curvature="0" /></g><g
           transform="translate(632.5859,383.4092)"
           id="g3206"><path
             d="m 0,0 6.212,0 0,35.409 -6.212,0 0,7.843 21.199,0 0,-7.843 -6.212,0 0,-35.409 6.212,0 0,-7.843 L 0,-7.843 0,0 z"
             id="path3208"
             style="fill:#29aae1;fill-opacity:1;fill-rule:nonzero;stroke:none"
             inkscape:connector-curvature="0" /></g><g
           transform="translate(659.7646,386.5156)"
           id="g3210"><path
             d="m 0,0 c 0,3.649 2.174,6.057 5.357,6.057 3.417,0 5.591,-2.563 5.591,-5.048 0,-1.242 -0.232,-2.174 -0.699,-3.106 1.864,-1.32 4.738,-2.174 8.076,-2.174 5.591,0 9.162,2.485 9.162,6.911 0,4.193 -4.269,6.212 -9.394,7.998 -9.474,3.417 -16.152,6.445 -16.152,15.919 0,8.153 6.6,14.52 16.927,14.52 9.552,0 16.929,-4.891 16.929,-11.026 0,-3.65 -2.252,-5.746 -5.202,-5.746 -3.573,0 -5.591,2.64 -5.591,5.203 0,1.242 0.233,1.785 0.543,2.407 -1.398,0.854 -3.571,1.553 -6.756,1.553 -5.047,0 -7.998,-2.563 -7.998,-6.29 0,-4.194 4.271,-6.057 9.396,-7.92 9.164,-3.262 16.074,-6.445 16.074,-15.919 0,-9.707 -7.533,-15.22 -18.015,-15.22 C 8.153,-11.881 0,-6.213 0,0"
             id="path3212"
             style="fill:#29aae1;fill-opacity:1;fill-rule:nonzero;stroke:none"
             inkscape:connector-curvature="0" /></g><g
           transform="translate(702.6299,383.4092)"
           id="g3214"><path
             d="m 0,0 5.823,0 0,35.409 -5.823,0 0,7.843 21.354,0 0,-7.843 -6.755,0 0,-35.486 14.054,0 0,7.222 8.465,0 0,-14.988 L 0,-7.843 0,0 z"
             id="path3216"
             style="fill:#29aae1;fill-opacity:1;fill-rule:nonzero;stroke:none"
             inkscape:connector-curvature="0" /></g><g
           transform="translate(776.3232,399.0176)"
           id="g3218"><path
             d="M 0,0 -7.145,20.111 -14.288,0 0,0 z m -33.002,-15.608 4.426,0 12.735,35.487 -5.591,0 0,7.765 28.886,0 0,-7.765 -5.592,0 12.737,-35.487 4.425,0 0,-7.843 -19.646,0 0,7.765 5.902,0 -2.873,8.386 -19.102,0 -2.873,-8.386 6.212,0 0,-7.765 -19.646,0 0,7.843 z"
             id="path3220"
             style="fill:#29aae1;fill-opacity:1;fill-rule:nonzero;stroke:none"
             inkscape:connector-curvature="0" /></g><g
           transform="translate(813.5977,410.8203)"
           id="g3222"><path
             d="m 0,0 0,-27.411 6.369,0 0,-7.843 -20.733,0 0,7.843 5.824,0 0,35.409 -5.824,0 0,7.843 13.278,0 25.158,-32.07 0,24.227 -6.367,0 0,7.843 20.5,0 0,-7.843 -5.59,0 0,-43.33 -4.736,-0.155 L 0,0 z"
             id="path3224"
             style="fill:#29aae1;fill-opacity:1;fill-rule:nonzero;stroke:none"
             inkscape:connector-curvature="0" /></g><g
           transform="translate(876.5791,383.4092)"
           id="g3226"><path
             d="m 0,0 c 13.2,0 20.034,7.145 20.034,18.093 0,11.181 -7.921,17.316 -20.656,17.316 l -4.426,0 L -5.048,0 0,0 z m -19.646,0 5.824,0 0,35.409 -5.824,0 0,7.843 19.334,0 c 18.483,0 29.431,-9.629 29.431,-25.081 0,-15.608 -10.329,-26.014 -30.362,-26.014 l -18.403,0 0,7.843 z"
             id="path3228"
             style="fill:#29aae1;fill-opacity:1;fill-rule:nonzero;stroke:none"
             inkscape:connector-curvature="0" /></g><g
           transform="translate(225.2979,239.3691)"
           id="g3230"><path
             d="m 0,0 c 0.109,0.185 0.219,0.367 0.319,0.558 9.011,15.903 4.515,26.937 4.515,26.937 0,0 -0.466,-7.323 -16.363,-7.323 -7.395,0 -13.389,-5.994 -13.389,-13.39 0,-7.394 5.994,-13.389 13.389,-13.389 4.739,0 8.894,2.469 11.274,6.185 0.01,0.015 0.024,0.019 0.034,0.035 C -0.144,-0.257 -0.075,-0.129 0,0"
             id="path3232"
             style="fill:#29aae1;fill-opacity:1;fill-rule:nonzero;stroke:none"
             inkscape:connector-curvature="0" /></g></g></g></g>
             </a>
             </svg>